<svg xmlns="http://www.w3.org/2000/svg" viewBox="0 0 960 540" role="img" aria-label="Data types to feature vector poster">
  <rect width="960" height="540" fill="#f8fbff"/>
  <g transform="translate(90 120)">
    <rect width="220" height="210" rx="22" fill="#ffffff" stroke="#d7dee9" stroke-width="4"/>
    <g stroke="#d7dee9"><path d="M0 52H220M0 104H220M0 156H220M55 0V210M110 0V210M165 0V210"/></g>
  </g>
  <path d="M340 225H485" stroke="#0f1728" stroke-width="8" stroke-linecap="round"/>
  <path d="M475 200L520 225L475 250Z" fill="#0f1728"/>
  <g transform="translate(540 125)" fill="#d8f6ff" stroke="#0f1728" stroke-width="3">
    <rect x="0" y="0" width="52" height="72" rx="10"/><rect x="62" y="0" width="52" height="72" rx="10"/>
    <rect x="124" y="0" width="52" height="72" rx="10"/><rect x="186" y="0" width="52" height="72" rx="10"/>
    <rect x="0" y="96" width="52" height="72" rx="10" fill="#fff2ad"/><rect x="62" y="96" width="52" height="72" rx="10" fill="#fff2ad"/>
    <rect x="124" y="96" width="52" height="72" rx="10" fill="#fff2ad"/><rect x="186" y="96" width="52" height="72" rx="10" fill="#fff2ad"/>
  </g>
  <text x="90" y="76" fill="#0f1728" font-family="Arial, sans-serif" font-size="34" font-weight="700">Column meaning becomes model input</text>
</svg>
