<svg xmlns="http://www.w3.org/2000/svg" viewBox="0 0 960 540" role="img" aria-label="Affine score and activation poster">
  <rect width="960" height="540" fill="#f6f7f9"/>
  <g stroke="#d9dee8" stroke-width="1">
    <path d="M96 110H422M96 164H422M96 218H422M96 272H422M96 326H422M96 380H422"/>
    <path d="M150 80V410M204 80V410M258 80V410M312 80V410M366 80V410"/>
  </g>
  <path d="M96 245H422M259 80V410" stroke="#8b95a5" stroke-width="2"/>
  <path d="M116 338C182 302 247 258 306 204C347 166 376 137 410 112" fill="none" stroke="#172033" stroke-width="7" stroke-linecap="round"/>
  <path d="M118 292C178 267 251 218 318 156" fill="none" stroke="#256bd9" stroke-width="4" stroke-dasharray="10 9"/>
  <g fill="#256bd9" stroke="#fff" stroke-width="3">
    <circle cx="154" cy="154" r="8"/><circle cx="194" cy="184" r="8"/><circle cx="246" cy="166" r="8"/><circle cx="316" cy="122" r="8"/>
  </g>
  <g fill="#e26d3d" stroke="#fff" stroke-width="3">
    <circle cx="152" cy="345" r="8"/><circle cx="218" cy="326" r="8"/><circle cx="290" cy="344" r="8"/><circle cx="360" cy="298" r="8"/>
  </g>
  <g transform="translate(502 138)">
    <circle cx="78" cy="132" r="54" fill="#fff" stroke="#172033" stroke-width="5"/>
    <path d="M45 141C61 146 59 117 76 117C94 117 91 146 112 137" fill="none" stroke="#4d63ff" stroke-width="5" stroke-linecap="round"/>
    <path d="M0 132H24M132 132H182" stroke="#172033" stroke-width="5" stroke-linecap="round"/>
    <path d="M182 132L164 121V143Z" fill="#172033"/>
  </g>
  <g transform="translate(715 122)">
    <path d="M0 250H170M0 250V28" stroke="#8b95a5" stroke-width="2"/>
    <path d="M2 214C38 212 54 156 82 138C111 119 111 70 168 62" fill="none" stroke="#256bd9" stroke-width="8" stroke-linecap="round"/>
    <path d="M2 226C43 220 58 178 84 160C114 139 122 98 168 88" fill="none" stroke="#e26d3d" stroke-width="8" stroke-linecap="round" opacity=".72"/>
  </g>
  <text x="84" y="56" fill="#101828" font-family="Arial, sans-serif" font-size="34" font-weight="700">Affine score, then activation</text>
  <text x="84" y="486" fill="#667085" font-family="Arial, sans-serif" font-size="22">A directional score becomes a nonlinear response field.</text>
</svg>
