<svg xmlns="http://www.w3.org/2000/svg" viewBox="0 0 960 540" role="img" aria-label="Affine score and activation poster">
  <rect width="960" height="540" fill="#f8fbff"/>
  <g transform="translate(82 92)">
    <rect width="300" height="300" rx="18" fill="#fff" stroke="#d9e3ee" stroke-width="3"/>
    <path d="M30 208L266 72" stroke="#4f8b5c" stroke-width="7" stroke-linecap="round"/>
    <circle cx="74" cy="90" r="9" fill="#164b83"/><circle cx="118" cy="120" r="9" fill="#164b83"/><circle cx="192" cy="88" r="9" fill="#164b83"/>
    <circle cx="70" cy="228" r="9" fill="#e26d3d"/><circle cx="130" cy="238" r="9" fill="#e26d3d"/><circle cx="214" cy="222" r="9" fill="#e26d3d"/>
  </g>
  <g transform="translate(452 242)">
    <circle r="54" fill="#dff2d7" stroke="#4f8b5c" stroke-width="6"/>
    <path d="M-30 16C-12 18-14-18 5-18C24-18 18 18 38 12" fill="none" stroke="#2b6d3c" stroke-width="5"/>
    <path d="M-120 0H-62M62 0H146" stroke="#4f8b5c" stroke-width="6" stroke-linecap="round"/>
    <path d="M146 0L124-14L124 14Z" fill="#4f8b5c"/>
  </g>
  <path d="M660 350C700 344 700 172 744 166C788 160 790 92 878 88" fill="none" stroke="#164b83" stroke-width="12" stroke-linecap="round"/>
  <path d="M650 360C696 352 696 196 744 184C792 172 792 118 880 110" fill="none" stroke="#e26d3d" stroke-width="12" stroke-linecap="round" opacity=".7"/>
  <text x="78" y="56" fill="#0f1728" font-family="Arial, sans-serif" font-size="34" font-weight="700">Affine score, then activation</text>
</svg>
