<svg xmlns="http://www.w3.org/2000/svg" viewBox="0 0 960 540" role="img" aria-label="Backpropagation responsibility poster">
  <rect width="960" height="540" fill="#f6f7f9"/>
  <g stroke="#cfd6e2" stroke-width="5" stroke-opacity=".72" stroke-linecap="round">
    <path d="M140 210L334 150M140 330L334 150M140 210L334 270M140 330L334 270M334 150L560 210M334 270L560 210M334 150L560 330M334 270L560 330M560 210L782 270M560 330L782 270"/>
  </g>
  <g fill="#fff" stroke="#172033" stroke-width="5">
    <circle cx="140" cy="210" r="31"/><circle cx="140" cy="330" r="31"/>
    <circle cx="334" cy="150" r="29"/><circle cx="334" cy="270" r="29"/>
    <circle cx="560" cy="210" r="29"/><circle cx="560" cy="330" r="29"/>
  </g>
  <circle cx="782" cy="270" r="38" fill="#fff" stroke="#172033" stroke-width="6"/>
  <circle cx="850" cy="270" r="27" fill="#ffe9e2" stroke="#e26d3d" stroke-width="5"/>
  <text x="839" y="279" fill="#e26d3d" font-family="Arial, sans-serif" font-size="28" font-weight="700">L</text>
  <g fill="none" stroke="#e26d3d" stroke-linecap="round">
    <path d="M824 270C756 256 682 232 590 213" stroke-width="9"/>
    <path d="M824 270C754 294 682 318 590 329" stroke-width="8" opacity=".82"/>
    <path d="M532 329C474 319 418 294 365 276" stroke-width="7" opacity=".7"/>
    <path d="M306 267C246 280 202 307 168 326" stroke-width="6" opacity=".58"/>
  </g>
  <text x="84" y="62" fill="#101828" font-family="Arial, sans-serif" font-size="34" font-weight="700">Loss signal flows backward</text>
  <text x="84" y="486" fill="#667085" font-family="Arial, sans-serif" font-size="22">Gradients assign responsibility to links and biases across the graph.</text>
</svg>
