<svg xmlns="http://www.w3.org/2000/svg" viewBox="0 0 960 540" role="img" aria-label="Capacity overfitting poster">
  <rect width="960" height="540" fill="#f6f7f9"/>
  <g font-family="Arial, sans-serif">
    <g transform="translate(70 130)">
      <rect width="236" height="246" rx="10" fill="#fff" stroke="#d9dee8"/>
      <path d="M24 214H214M24 214V26" stroke="#8b95a5" stroke-width="2"/>
      <path d="M30 184L210 68" stroke="#172033" stroke-width="7" stroke-linecap="round" fill="none"/>
      <g fill="#256bd9" stroke="#fff" stroke-width="3"><circle cx="58" cy="72" r="8"/><circle cx="104" cy="98" r="8"/><circle cx="154" cy="112" r="8"/></g>
      <g fill="#e26d3d" stroke="#fff" stroke-width="3"><circle cx="70" cy="188" r="8"/><circle cx="134" cy="172" r="8"/><circle cx="190" cy="184" r="8"/></g>
      <text x="24" y="284" fill="#667085" font-size="22" font-weight="700">underfit</text>
    </g>
    <g transform="translate(362 130)">
      <rect width="236" height="246" rx="10" fill="#fff" stroke="#d9dee8"/>
      <path d="M24 214H214M24 214V26" stroke="#8b95a5" stroke-width="2"/>
      <path d="M30 202C82 178 102 130 128 106C156 80 180 70 210 62" stroke="#172033" stroke-width="7" stroke-linecap="round" fill="none"/>
      <g fill="#256bd9" stroke="#fff" stroke-width="3"><circle cx="56" cy="72" r="8"/><circle cx="104" cy="86" r="8"/><circle cx="154" cy="78" r="8"/></g>
      <g fill="#e26d3d" stroke="#fff" stroke-width="3"><circle cx="68" cy="188" r="8"/><circle cx="134" cy="174" r="8"/><circle cx="192" cy="184" r="8"/></g>
      <text x="24" y="284" fill="#667085" font-size="22" font-weight="700">balanced</text>
    </g>
    <g transform="translate(654 130)">
      <rect width="236" height="246" rx="10" fill="#fff" stroke="#d9dee8"/>
      <path d="M24 214H214M24 214V26" stroke="#8b95a5" stroke-width="2"/>
      <path d="M30 188C52 116 78 222 104 166C132 92 158 206 178 96C190 38 202 110 212 64" stroke="#172033" stroke-width="7" stroke-linecap="round" fill="none"/>
      <g fill="#256bd9" stroke="#fff" stroke-width="3"><circle cx="58" cy="72" r="8"/><circle cx="104" cy="98" r="8"/><circle cx="154" cy="78" r="8"/></g>
      <g fill="#e26d3d" stroke="#fff" stroke-width="3"><circle cx="66" cy="190" r="8"/><circle cx="136" cy="174" r="8"/><circle cx="194" cy="190" r="8"/></g>
      <text x="24" y="284" fill="#667085" font-size="22" font-weight="700">overfit</text>
    </g>
  </g>
  <text x="84" y="62" fill="#101828" font-family="Arial, sans-serif" font-size="34" font-weight="700">Capacity changes boundary shape</text>
  <text x="84" y="486" fill="#667085" font-family="Arial, sans-serif" font-size="22">Training loss alone cannot choose the right boundary.</text>
</svg>
