<svg xmlns="http://www.w3.org/2000/svg" viewBox="0 0 960 540" role="img" aria-label="Hidden representation rewrite poster">
  <rect width="960" height="540" fill="#f6f7f9"/>
  <g stroke="#d9dee8" stroke-width="1">
    <path d="M86 150H350M86 214H350M86 278H350M86 342H350M86 406H350"/>
    <path d="M150 104V430M214 104V430M278 104V430M646 150H884M646 214H884M646 278H884M646 342H884M646 406H884"/>
    <path d="M706 104V430M766 104V430M826 104V430"/>
  </g>
  <path d="M86 430H350M86 104V430M646 430H884M646 104V430" stroke="#8b95a5" stroke-width="2"/>
  <g fill="#256bd9" stroke="#fff" stroke-width="3">
    <circle cx="122" cy="166" r="8"/><circle cx="166" cy="206" r="8"/><circle cx="226" cy="270" r="8"/><circle cx="306" cy="338" r="8"/>
    <circle cx="698" cy="166" r="8"/><circle cx="732" cy="196" r="8"/><circle cx="772" cy="226" r="8"/><circle cx="812" cy="246" r="8"/>
  </g>
  <g fill="#e26d3d" stroke="#fff" stroke-width="3">
    <circle cx="124" cy="342" r="8"/><circle cx="172" cy="302" r="8"/><circle cx="230" cy="238" r="8"/><circle cx="308" cy="174" r="8"/>
    <circle cx="700" cy="334" r="8"/><circle cx="744" cy="360" r="8"/><circle cx="790" cy="384" r="8"/><circle cx="832" cy="396" r="8"/>
  </g>
  <path d="M684 286C734 262 794 250 864 226" stroke="#172033" stroke-width="6" stroke-dasharray="12 10" fill="none"/>
  <g transform="translate(420 180)" fill="#fff" stroke="#172033" stroke-width="3">
    <circle cx="0" cy="44" r="21"/><circle cx="0" cy="134" r="21"/><circle cx="108" cy="18" r="21"/><circle cx="108" cy="88" r="21"/><circle cx="108" cy="158" r="21"/>
  </g>
  <g stroke="#4d63ff" stroke-width="4" stroke-linecap="round">
    <path d="M450 224C485 209 500 205 528 198"/><path d="M450 224C486 248 501 259 528 268"/><path d="M450 314C486 294 501 286 528 268"/><path d="M450 314C486 326 501 337 528 338"/>
  </g>
  <text x="84" y="62" fill="#101828" font-family="Arial, sans-serif" font-size="34" font-weight="700">Hidden space rewrites geometry</text>
  <text x="84" y="486" fill="#667085" font-family="Arial, sans-serif" font-size="22">The final layer reads a cleaner representation than the raw input plane.</text>
</svg>
