<svg xmlns="http://www.w3.org/2000/svg" viewBox="0 0 960 540" role="img" aria-label="Architecture math flow poster">
  <rect width="960" height="540" fill="#f4fbf8"/>
  <g transform="translate(96 104)" fill="#d8f6ff" stroke="#10162f" stroke-width="3">
    <rect width="190" height="190" rx="14"/>
    <g opacity=".45"><path d="M47 0V190M94 0V190M141 0V190M0 47H190M0 94H190M0 141H190"/></g>
    <rect x="48" y="48" width="94" height="94" fill="#fff2ad" opacity=".85"/>
  </g>
  <g fill="#dffbe9" stroke="#10162f" stroke-width="5">
    <circle cx="424" cy="154" r="28"/><circle cx="504" cy="112" r="28"/><circle cx="596" cy="164" r="28"/><circle cx="506" cy="228" r="28"/>
  </g>
  <circle cx="746" cy="166" r="36" fill="#ffd84d" stroke="#10162f" stroke-width="5"/>
  <g stroke="#0f9f7a" stroke-width="6" stroke-linecap="round" opacity=".65">
    <path d="M424 154L746 166"/><path d="M504 112L746 166"/><path d="M596 164L746 166"/><path d="M506 228L746 166"/>
  </g>
  <path d="M174 410H650" stroke="#10162f" stroke-width="8" stroke-linecap="round" opacity=".38"/>
  <path d="M174 410C326 336 496 336 650 410" fill="none" stroke="#ffd84d" stroke-width="9" stroke-linecap="round"/>
  <rect x="690" y="362" width="106" height="96" rx="14" fill="#e7ddff" stroke="#10162f" stroke-width="5"/>
</svg>
