<svg xmlns="http://www.w3.org/2000/svg" viewBox="0 0 960 540" role="img" aria-label="California Housing fit comparison poster">
  <rect width="960" height="540" fill="#f8fbff"/>
  <g stroke="#d7dee9" stroke-width="1">
    <path d="M112 96V438M232 96V438M352 96V438M472 96V438M592 96V438M712 96V438M832 96V438"/>
    <path d="M96 138H864M96 210H864M96 282H864M96 354H864M96 426H864"/>
  </g>
  <path d="M96 426H864M96 96V426" stroke="#667085" stroke-width="3"/>
  <g fill="#3868ff" stroke="#ffffff" stroke-width="4">
    <circle cx="156" cy="390" r="10"/><circle cx="226" cy="310" r="10"/><circle cx="314" cy="274" r="10"/>
    <circle cx="410" cy="228" r="10"/><circle cx="518" cy="302" r="10"/><circle cx="626" cy="178" r="10"/>
    <circle cx="748" cy="214" r="10"/>
  </g>
  <g fill="#db6c3a" stroke="#ffffff" stroke-width="4">
    <circle cx="192" cy="332" r="10"/><circle cx="366" cy="360" r="10"/><circle cx="574" cy="254" r="10"/><circle cx="828" cy="304" r="10"/>
  </g>
  <path d="M130 382 C260 318 382 238 520 190 C640 150 760 168 846 284" fill="none" stroke="#21846f" stroke-width="10" stroke-linecap="round"/>
  <path d="M130 390 C210 170 300 416 392 226 C520 -18 648 482 846 220" fill="none" stroke="#db6c3a" stroke-width="8" stroke-linecap="round" opacity="0.72"/>
  <text x="88" y="70" fill="#0f1728" font-family="Arial, sans-serif" font-size="34" font-weight="700">Underfit, better fit, overfit</text>
  <text x="88" y="500" fill="#475467" font-family="Arial, sans-serif" font-size="24">California Housing: MedInc to median house value</text>
</svg>
