<svg xmlns="http://www.w3.org/2000/svg" viewBox="0 0 960 540" role="img" aria-label="Matrix-vector multiplication mixes columns">
  <rect width="960" height="540" fill="#fffaf1"/>
  <g stroke="#dbe4f2" stroke-width="1">
    <path d="M90 120H870M90 190H870M90 260H870M90 330H870M90 400H870"/>
    <path d="M130 90V450M240 90V450M350 90V450M460 90V450M570 90V450M680 90V450M790 90V450"/>
  </g>
  <text x="82" y="70" fill="#10162f" font-family="Arial, sans-serif" font-size="34" font-weight="700">Matrix-vector multiplication mixes columns</text>

  <path d="M160 410L400 290" stroke="#3868ff" stroke-width="10" stroke-linecap="round"/>
  <path d="M400 290L520 122" stroke="#0f9f7a" stroke-width="10" stroke-linecap="round"/>
  <path d="M160 410L520 122" stroke="#e26d3d" stroke-width="10" stroke-linecap="round"/>
  <path d="M384 270L432 274L400 309Z" fill="#3868ff"/>
  <path d="M499 112L544 88L523 139Z" fill="#0f9f7a"/>
  <path d="M500 106L548 84L524 134Z" fill="#e26d3d"/>
  <text x="210" y="290" fill="#3868ff" font-family="Arial, sans-serif" font-size="27" font-weight="700">x1 a1</text>
  <text x="430" y="214" fill="#0f9f7a" font-family="Arial, sans-serif" font-size="27" font-weight="700">x2 a2</text>
  <text x="570" y="158" fill="#e26d3d" font-family="Arial, sans-serif" font-size="29" font-weight="700">Ax</text>
  <text x="570" y="222" fill="#10162f" font-family="Arial, sans-serif" font-size="27">Ax = x1 a1 + x2 a2</text>

  <text x="82" y="502" fill="#475467" font-family="Arial, sans-serif" font-size="24">The input coordinates choose how much of each matrix column to add.</text>
</svg>
