<svg xmlns="http://www.w3.org/2000/svg" viewBox="0 0 960 540" role="img" aria-label="Monte Carlo samples inside a quarter circle">
  <rect width="960" height="540" fill="#f7fbfa"/>
  <g transform="translate(245 92)">
    <rect x="0" y="0" width="356" height="356" rx="18" fill="#ffffff" stroke="#d9e3e1" stroke-width="4"/>
    <path d="M0 0 A356 356 0 0 1 356 356" fill="none" stroke="#247a73" stroke-width="12" stroke-linecap="round"/>
    <g fill="#247a73" stroke="#ffffff" stroke-width="3">
      <circle cx="34" cy="292" r="9"/><circle cx="80" cy="210" r="9"/><circle cx="142" cy="312" r="9"/>
      <circle cx="188" cy="160" r="9"/><circle cx="228" cy="238" r="9"/><circle cx="282" cy="182" r="9"/>
      <circle cx="315" cy="318" r="9"/><circle cx="58" cy="74" r="9"/><circle cx="108" cy="116" r="9"/>
    </g>
    <g fill="#d8663a" stroke="#ffffff" stroke-width="3">
      <circle cx="322" cy="70" r="9"/><circle cx="292" cy="118" r="9"/><circle cx="184" cy="42" r="9"/>
      <circle cx="334" cy="214" r="9"/>
    </g>
  </g>
  <text x="88" y="64" fill="#0f1728" font-family="Arial, sans-serif" font-size="34" font-weight="700">Monte Carlo turns area into a count</text>
  <text x="88" y="500" fill="#475467" font-family="Arial, sans-serif" font-size="24">Count the fraction of samples inside the quarter circle, then scale the area.</text>
</svg>
