<svg xmlns="http://www.w3.org/2000/svg" viewBox="0 0 960 540" role="img" aria-label="PCA centers before projecting variance">
  <rect width="960" height="540" fill="#fffaf1"/>
  <g stroke="#dbe4f2" stroke-width="1">
    <path d="M90 120H870M90 190H870M90 260H870M90 330H870M90 400H870"/>
    <path d="M130 90V450M240 90V450M350 90V450M460 90V450M570 90V450M680 90V450M790 90V450"/>
  </g>
  <text x="82" y="70" fill="#10162f" font-family="Arial, sans-serif" font-size="34" font-weight="700">PCA centers before projecting variance</text>

  <path d="M118 392H548M170 120V426" stroke="#7b8497" stroke-width="3"/>
  <g fill="#3868ff" stroke="#10162f" stroke-width="3">
    <circle cx="216" cy="312" r="12"/><circle cx="258" cy="282" r="12"/><circle cx="306" cy="260" r="12"/>
    <circle cx="348" cy="236" r="12"/><circle cx="400" cy="214" r="12"/><circle cx="452" cy="186" r="12"/>
  </g>
  <circle cx="330" cy="248" r="15" fill="#ffd84d" stroke="#10162f" stroke-width="4"/>
  <path d="M330 248L220 328" stroke="#d65a31" stroke-width="7" stroke-linecap="round" stroke-dasharray="12 10"/>
  <path d="M220 328L500 170" stroke="#f2b84b" stroke-width="10" stroke-linecap="round"/>
  <g fill="#f2b84b" stroke="#10162f" stroke-width="3">
    <circle cx="252" cy="310" r="10"/><circle cx="296" cy="286" r="10"/><circle cx="336" cy="263" r="10"/>
    <circle cx="374" cy="242" r="10"/><circle cx="420" cy="216" r="10"/><circle cx="468" cy="190" r="10"/>
  </g>
  <text x="596" y="190" fill="#10162f" font-family="Arial, sans-serif" font-size="28" font-weight="700">1. subtract the mean</text>
  <text x="596" y="250" fill="#10162f" font-family="Arial, sans-serif" font-size="28" font-weight="700">2. find max variance</text>
  <text x="596" y="310" fill="#10162f" font-family="Arial, sans-serif" font-size="28" font-weight="700">3. project onto it</text>

  <text x="82" y="502" fill="#475467" font-family="Arial, sans-serif" font-size="24">Center the cloud, then keep the direction with the largest projection variance.</text>
</svg>
